<svg width="68" height="85" viewBox="0 0 68 85" fill="none" xmlns="http://www.w3.org/2000/svg">
<path d="M16.8571 80.5H51.1429M34 55.1667V80.5M4 12.9444C4 14.0534 4.77597 15.1515 6.28361 16.176C7.79125 17.2005 10.001 18.1314 12.7868 18.9156C15.5726 19.6997 18.8797 20.3217 22.5195 20.7461C26.1593 21.1705 30.0603 21.3889 34 21.3889C37.9397 21.3889 41.8407 21.1705 45.4805 20.7461C49.1203 20.3217 52.4274 19.6997 55.2132 18.9156C57.999 18.1314 60.2087 17.2005 61.7164 16.176C63.224 15.1515 64 14.0534 64 12.9444M4 12.9444C4 11.8355 4.77597 10.7374 6.28361 9.71289C7.79125 8.68837 10.001 7.75746 12.7868 6.97332C15.5726 6.18918 18.8797 5.56717 22.5195 5.1428C26.1593 4.71842 30.0603 4.5 34 4.5C37.9397 4.5 41.8407 4.71842 45.4805 5.1428C49.1203 5.56717 52.4274 6.18918 55.2132 6.97332C57.999 7.75746 60.2087 8.68837 61.7164 9.71289C63.224 10.7374 64 11.8355 64 12.9444M4 12.9444V14.5827C4 16.4067 4.54 18.1842 5.55143 19.6747L26.98 51.3793C29.6929 55.3947 35.0371 56.3742 38.9157 53.5622C39.7343 52.9669 40.45 52.228 41.02 51.3793L62.4486 19.6747C63.46 18.1842 64 16.4067 64 14.5827V12.9444" stroke="white" stroke-width="8" stroke-linecap="round" stroke-linejoin="round"/>
</svg>
