<svg width="59" height="84" viewBox="0 0 59 84" fill="none" xmlns="http://www.w3.org/2000/svg">
<path d="M12.4444 80H46.2222M29.3333 58.8889V80M29.3333 58.8889C43.3258 58.8889 54.6667 50.4951 54.6667 37.7778L50.4444 12.4444M29.3333 58.8889C15.3409 58.8889 4 50.4951 4 37.7778L8.22222 12.4444M50.4444 12.4444C50.4444 14.6841 48.2202 16.8319 44.2611 18.4156C40.302 19.9992 34.9323 20.8889 29.3333 20.8889C23.7343 20.8889 18.3646 19.9992 14.4055 18.4156C10.4464 16.8319 8.22222 14.6841 8.22222 12.4444M50.4444 12.4444C50.4444 10.2048 48.2202 8.05696 44.2611 6.47332C40.302 4.88968 34.9323 4 29.3333 4C23.7343 4 18.3646 4.88968 14.4055 6.47332C10.4464 8.05696 8.22222 10.2048 8.22222 12.4444" stroke="white" stroke-width="8" stroke-linecap="round" stroke-linejoin="round"/>
</svg>
