<svg width="42" height="84" viewBox="0 0 42 84" fill="none" xmlns="http://www.w3.org/2000/svg">
<path d="M8.22222 80H33.5556M20.8889 58.8889V80M20.8889 58.8889C11.5578 58.8889 4 38.0944 4 12.4444M20.8889 58.8889C30.22 58.8889 37.7778 38.0944 37.7778 12.4444M4 12.4444C4 14.6841 5.77936 16.8319 8.94664 18.4156C12.1139 19.9992 16.4097 20.8889 20.8889 20.8889C25.3681 20.8889 29.6639 19.9992 32.8311 18.4156C35.9984 16.8319 37.7778 14.6841 37.7778 12.4444M4 12.4444C4 10.2048 5.77936 8.05696 8.94664 6.47332C12.1139 4.88968 16.4097 4 20.8889 4C25.3681 4 29.6639 4.88968 32.8311 6.47332C35.9984 8.05696 37.7778 10.2048 37.7778 12.4444" stroke="white" stroke-width="8" stroke-linecap="round" stroke-linejoin="round"/>
</svg>
